<?xml version="1.0" standalone="no"?>
<!DOCTYPE svg PUBLIC "-//W3C//DTD SVG 20010904//EN"
 "http://www.w3.org/TR/2001/REC-SVG-20010904/DTD/svg10.dtd">
<svg version="1.0" xmlns="http://www.w3.org/2000/svg"
 width="700.000000pt" height="700.000000pt" viewBox="0 0 700.000000 700.000000"
 preserveAspectRatio="xMidYMid meet">
<metadata>
Created by potrace 1.11, written by Peter Selinger 2001-2013
</metadata>
<g transform="translate(0.000000,700.000000) scale(0.100000,-0.100000)"
fill="#000000" stroke="none">
<path d="M3275 6035 c-171 -17 -246 -29 -390 -66 -66 -17 -132 -33 -147 -36
-16 -3 -28 -9 -28 -14 0 -5 -11 -9 -25 -9 -14 0 -25 -4 -25 -10 0 -5 -13 -10
-30 -10 -16 0 -30 -4 -30 -10 0 -5 -11 -10 -24 -10 -14 0 -28 -4 -31 -10 -3
-5 -15 -10 -26 -10 -10 0 -19 -4 -19 -10 0 -5 -11 -10 -25 -10 -14 0 -25 -4
-25 -10 0 -5 -9 -10 -20 -10 -11 0 -20 -4 -20 -10 0 -5 -5 -10 -10 -10 -14 0
-67 -26 -145 -72 -33 -19 -71 -41 -85 -49 -14 -8 -27 -16 -30 -19 -3 -3 -32
-23 -65 -45 -33 -22 -61 -43 -63 -47 -2 -5 -10 -8 -18 -8 -8 0 -17 -6 -20 -13
-2 -7 -22 -24 -44 -37 -22 -14 -40 -28 -40 -32 0 -5 -4 -8 -9 -8 -9 0 -63 -48
-173 -152 -28 -27 -47 -48 -44 -48 4 0 -8 -13 -26 -30 -18 -16 -37 -30 -42
-30 -5 0 -7 -3 -3 -6 3 -3 -7 -20 -21 -36 -15 -17 -31 -36 -37 -42 -5 -6 -26
-32 -45 -56 -19 -25 -39 -51 -45 -58 -5 -7 -18 -22 -27 -33 -10 -10 -16 -19
-13 -19 3 0 -19 -36 -50 -80 -30 -45 -58 -92 -61 -105 -3 -14 -10 -25 -14 -25
-8 0 -97 -174 -102 -200 -2 -8 -6 -17 -10 -20 -12 -10 -78 -182 -72 -191 3 -5
1 -9 -4 -9 -6 0 -15 -24 -22 -52 -6 -29 -18 -66 -25 -83 -13 -26 -47 -179 -48
-212 0 -7 -3 -13 -7 -13 -3 0 -6 -8 -7 -17 0 -10 -4 -36 -7 -58 -4 -22 -9 -56
-11 -75 -2 -19 -6 -62 -10 -95 -12 -103 -7 -414 10 -545 20 -161 38 -266 47
-276 5 -4 8 -20 8 -35 0 -15 4 -30 9 -33 4 -3 11 -24 15 -47 19 -116 114 -355
206 -517 16 -29 30 -60 30 -67 0 -8 5 -15 10 -15 6 0 10 -7 10 -15 0 -8 5 -15
10 -15 6 0 10 -5 10 -10 0 -10 68 -119 81 -130 3 -3 31 -41 61 -85 31 -44 68
-91 82 -104 14 -14 26 -28 26 -33 0 -9 212 -218 266 -263 55 -45 105 -88 126
-107 10 -10 22 -18 26 -18 5 0 18 -8 29 -17 12 -10 59 -43 106 -73 47 -30 86
-59 86 -63 1 -4 -9 -21 -21 -37 -12 -16 -22 -37 -23 -47 -1 -10 -6 -27 -13
-39 -13 -24 4 -282 19 -299 5 -5 9 -22 9 -37 0 -15 5 -28 10 -28 6 0 10 -7 10
-16 0 -8 6 -21 13 -29 6 -7 23 -28 37 -46 40 -53 125 -132 175 -163 63 -39
182 -83 273 -102 43 -9 82 -20 88 -25 6 -5 13 -6 16 -3 3 3 35 0 69 -7 90 -17
117 -18 364 -20 157 -1 246 3 310 14 50 8 127 21 173 27 45 7 82 17 82 21 0 5
8 9 18 9 60 0 457 162 470 192 2 5 8 8 14 8 9 0 103 64 118 80 3 3 17 12 31
20 15 8 55 40 89 70 34 30 66 57 70 60 15 11 84 116 102 158 13 28 20 69 21
117 2 53 6 77 17 85 54 37 123 80 131 80 5 0 9 3 9 8 0 4 13 13 28 20 16 6 38
21 50 32 12 11 26 20 32 20 6 0 13 7 16 15 4 8 14 15 24 15 10 0 20 4 22 8 2
5 30 30 63 57 33 26 70 59 82 72 12 12 24 23 27 23 3 0 49 44 101 98 123 126
125 128 125 135 0 3 11 18 25 33 14 15 36 40 48 56 12 16 34 43 49 60 15 17
30 40 34 50 3 10 10 18 16 18 6 0 9 3 5 6 -3 4 5 21 18 39 14 17 25 37 25 42
0 6 6 13 14 16 8 3 17 20 21 37 4 17 13 34 21 37 8 3 14 13 14 22 0 9 9 27 20
41 11 14 20 31 20 38 0 6 5 12 12 12 6 0 8 3 5 6 -3 4 0 16 8 28 8 11 15 28
15 37 0 10 4 19 9 21 4 2 12 13 15 26 5 16 3 22 -7 22 -10 0 -18 -14 -22 -39
-4 -22 -13 -42 -21 -45 -8 -3 -14 -15 -14 -26 0 -11 -6 -20 -14 -20 -9 0 -17
-15 -21 -40 -4 -22 -10 -40 -15 -40 -5 0 -16 -3 -26 -7 -15 -6 -15 -1 5 31
l23 37 -32 404 c-32 413 -34 481 -11 509 9 11 10 16 2 16 -6 0 -11 -4 -11 -10
0 -5 -7 -10 -16 -10 -11 0 -14 6 -8 23 4 12 10 24 14 27 5 3 13 25 20 50 7 25
17 51 22 57 6 7 8 19 5 27 -3 7 0 19 6 25 16 16 15 187 -1 203 -7 7 -12 27
-12 45 0 18 -4 33 -10 33 -5 0 -10 5 -10 11 0 13 -41 101 -51 109 -3 3 -9 22
-13 43 -4 22 -13 37 -21 37 -8 0 -15 6 -15 13 0 27 14 27 32 0 l18 -28 0 28
c0 21 -6 30 -20 34 -17 4 -18 8 -8 20 9 11 9 16 -1 22 -17 11 -92 956 -77 971
7 7 6 10 -2 10 -7 0 -12 11 -12 24 0 13 -7 26 -15 30 -8 3 -15 10 -15 16 0 5
7 10 15 10 8 0 15 -5 15 -11 0 -7 10 -21 23 -33 12 -12 28 -33 36 -49 8 -15
18 -27 21 -27 4 0 13 -13 20 -30 7 -16 19 -30 26 -30 8 0 14 -6 14 -14 0 -18
32 -76 43 -76 12 0 8 18 -8 34 -8 8 -15 20 -15 26 0 7 -13 29 -30 50 -16 21
-30 41 -30 45 0 3 -6 13 -12 20 -28 30 -38 44 -38 50 0 3 -13 20 -30 38 -16
18 -30 38 -30 45 0 7 -7 15 -15 18 -8 4 -15 10 -15 15 0 8 -13 23 -120 138
-33 36 -60 68 -60 73 0 4 -7 8 -15 8 -8 0 -15 7 -15 17 0 9 -3 14 -6 10 -4 -3
-12 -1 -18 6 -7 7 -41 37 -76 67 -34 30 -74 65 -88 78 -14 12 -28 22 -32 22
-3 0 -17 10 -30 23 -14 12 -27 22 -30 22 -8 1 -93 58 -110 74 -8 8 -30 21 -50
30 -19 9 -53 28 -75 41 -22 14 -68 39 -102 55 -35 17 -63 33 -63 38 0 4 -8 7
-18 7 -10 0 -35 9 -57 20 -22 11 -43 20 -47 20 -5 0 -27 8 -51 18 -56 25 -138
54 -157 56 -9 1 -20 5 -26 9 -6 3 -31 9 -55 13 -24 4 -55 12 -69 19 -26 13
-166 38 -310 56 -129 16 -390 18 -535 4z m358 -311 c15 -2 37 -9 48 -14 11 -6
27 -10 37 -9 9 2 29 0 45 -4 29 -8 31 -18 17 -82 -15 -69 -19 -87 -30 -119 -5
-17 -19 -83 -30 -146 -11 -63 -22 -126 -25 -140 -3 -14 -7 -42 -10 -62 -2 -21
-7 -48 -10 -59 -7 -21 -10 -39 -20 -119 -5 -37 -12 -76 -21 -126 l-6 -31 54 5
c29 2 61 8 70 13 9 5 28 9 42 9 14 0 26 5 26 10 0 6 6 10 13 10 17 0 121 51
125 62 2 4 9 8 16 8 11 0 25 9 73 50 7 5 15 10 18 10 19 0 38 38 46 95 21 153
37 192 70 174 10 -5 19 -6 19 -2 0 4 4 3 8 -2 6 -10 50 -30 130 -59 18 -7 38
-18 44 -24 7 -7 19 -12 26 -12 18 0 146 -62 150 -72 2 -5 12 -8 22 -8 9 0 23
-7 30 -15 7 -8 19 -15 27 -15 7 0 16 -7 19 -15 4 -8 11 -15 17 -15 5 0 25 -16
44 -35 19 -19 38 -35 43 -35 5 0 11 -8 15 -19 3 -10 23 -37 45 -59 22 -22 40
-45 40 -52 0 -6 7 -13 15 -16 8 -4 15 -11 15 -18 0 -19 85 -100 126 -121 21
-11 43 -24 49 -30 18 -17 85 -112 85 -120 0 -10 40 -45 51 -45 15 0 56 -45 87
-96 17 -27 45 -62 62 -77 16 -15 30 -32 30 -38 0 -5 15 -27 34 -47 19 -20 45
-50 57 -67 13 -16 29 -36 36 -43 23 -24 14 -41 -24 -48 -21 -3 -66 -19 -101
-35 -34 -16 -69 -29 -77 -29 -8 0 -15 -4 -15 -9 0 -5 -15 -15 -32 -22 -18 -7
-55 -35 -82 -61 -27 -26 -53 -48 -58 -48 -4 0 -8 -5 -8 -11 0 -6 -20 -36 -44
-67 -25 -32 -56 -83 -71 -114 -14 -33 -32 -58 -40 -58 -8 0 -25 12 -38 27 -46
57 -88 92 -125 105 -57 19 -100 54 -195 156 -24 26 -58 48 -95 62 -31 12 -62
26 -69 32 -16 13 -35 0 -29 -20 11 -35 -30 -336 -52 -384 -26 -55 -28 -78 -7
-78 8 0 15 5 15 10 0 6 11 10 25 10 14 0 25 5 25 10 0 6 10 10 23 10 12 0 40
7 62 15 22 8 60 14 85 15 26 0 50 4 56 10 29 29 300 17 352 -16 12 -8 22 -12
22 -8 0 4 7 1 15 -6 19 -16 19 -57 1 -92 -8 -15 -12 -36 -9 -48 3 -11 0 -20
-6 -20 -6 0 -11 -13 -11 -29 0 -16 -7 -47 -15 -70 -8 -22 -12 -41 -8 -41 3 0
-2 -10 -10 -23 -8 -13 -18 -49 -22 -80 -4 -32 -11 -60 -16 -62 -4 -3 -6 -12
-3 -19 3 -7 -1 -20 -9 -28 -8 -8 -18 -33 -22 -56 -3 -22 -13 -46 -21 -53 -8
-6 -14 -19 -14 -29 0 -10 -7 -23 -15 -30 -8 -6 -17 -21 -21 -32 -3 -11 -18
-39 -34 -61 -15 -23 -31 -52 -34 -64 -4 -13 -12 -23 -17 -23 -5 0 -9 -5 -9
-11 0 -6 -20 -40 -46 -75 -25 -35 -43 -64 -40 -64 3 0 -6 -11 -20 -25 -14 -14
-31 -25 -39 -25 -8 0 -15 -4 -15 -10 0 -5 -4 -10 -10 -10 -26 0 -410 -363
-410 -388 0 -12 19 -13 103 -8 56 4 113 9 128 12 16 3 33 -2 48 -16 22 -18 23
-25 17 -77 -4 -31 -10 -60 -14 -63 -11 -7 -32 -82 -32 -114 0 -29 11 -33 30
-11 7 8 21 15 31 15 16 0 19 -8 19 -49 0 -40 6 -56 33 -89 44 -55 83 -78 103
-61 12 10 20 10 35 1 11 -7 24 -10 29 -7 6 4 10 -3 10 -14 0 -18 3 -19 28 -10
44 18 77 34 82 39 9 9 94 29 102 24 15 -9 8 -34 -13 -52 -12 -9 -29 -24 -38
-33 -25 -25 -71 -47 -125 -59 -42 -9 -52 -9 -65 5 -15 15 -14 17 2 26 25 15 2
34 -50 41 -22 3 -50 14 -60 24 -11 11 -30 26 -43 34 -49 32 -67 63 -61 103 1
8 -12 10 -45 8 -25 -2 -58 42 -50 67 3 9 7 30 10 45 3 16 10 35 16 42 7 8 14
41 17 74 l6 59 -59 3 c-33 2 -96 1 -141 -2 -87 -7 -84 -5 -163 -82 -16 -15
-31 -27 -34 -27 -4 0 -21 -13 -39 -29 -17 -16 -50 -45 -72 -65 -22 -20 -49
-38 -60 -41 -11 -3 -85 -7 -165 -8 -126 -3 -148 -1 -169 15 -13 10 -39 18 -57
18 -18 0 -35 4 -39 9 -7 12 -77 1 -90 -14 -67 -78 -218 -120 -292 -81 -18 9
-36 16 -39 15 -4 0 -10 3 -13 8 -10 14 -201 103 -221 103 -16 0 -104 41 -111
52 -3 5 -10 8 -15 7 -12 -3 -45 11 -64 26 -8 7 -32 18 -52 25 -21 6 -38 15
-38 20 0 4 -11 11 -25 14 -14 4 -25 10 -25 15 0 5 -13 12 -30 16 -16 4 -30 10
-30 14 0 3 -20 17 -45 31 -25 14 -45 27 -45 31 0 6 -39 26 -54 27 -5 0 -12 4
-15 9 -3 5 -17 14 -31 21 -32 15 -60 33 -78 49 -7 7 -18 13 -23 13 -5 0 -31
15 -57 33 -26 18 -73 48 -104 65 -58 31 -111 66 -136 89 -7 7 -24 16 -38 19
-13 3 -24 9 -24 13 0 4 -21 23 -47 42 -86 61 -193 161 -193 179 0 6 -4 10 -10
10 -5 0 -10 5 -10 11 0 6 -12 28 -27 48 -52 68 -64 102 -65 187 -1 70 3 88 35
163 20 47 42 88 48 91 6 4 21 -2 34 -14 29 -27 65 -56 100 -81 15 -11 39 -30
54 -41 25 -20 178 -114 187 -114 2 0 28 -11 58 -25 30 -14 60 -25 65 -25 6 0
11 -5 11 -11 0 -5 4 -8 9 -5 10 7 91 -24 91 -35 0 -4 8 -5 19 -2 10 3 22 0 25
-6 4 -6 16 -11 27 -11 11 0 22 -7 26 -16 3 -8 12 -13 19 -10 12 5 70 -19 84
-34 3 -3 24 -12 47 -19 65 -21 133 -96 133 -146 0 -17 37 -138 51 -167 5 -10
9 -22 9 -27 0 -6 13 -29 29 -53 45 -68 76 -129 90 -178 7 -25 16 -49 21 -55 4
-5 10 -22 13 -36 7 -28 39 -69 54 -69 5 0 15 11 21 25 13 28 -5 159 -32 234
-26 72 -7 65 64 -26 6 -7 10 -17 10 -22 0 -13 18 -35 83 -105 26 -28 55 -63
64 -78 9 -14 27 -31 40 -37 21 -9 25 -8 35 14 13 28 39 33 58 10 17 -21 22
-13 27 37 5 48 20 81 33 73 5 -3 18 0 29 7 18 11 20 20 16 88 -3 41 -10 77
-15 78 -6 2 -10 10 -10 18 0 8 -5 24 -12 37 -24 48 -28 57 -28 77 0 11 -4 20
-8 20 -5 0 -15 12 -23 27 -8 16 -17 30 -21 33 -3 3 -10 18 -14 34 -6 26 -5 28
17 21 13 -4 30 -14 37 -23 6 -9 12 -13 12 -10 0 4 21 -4 46 -18 31 -17 53 -22
72 -18 27 7 62 31 62 44 0 4 -28 27 -62 51 -35 24 -69 49 -76 56 -7 7 -17 13
-22 13 -4 0 -13 13 -19 30 -5 17 -15 30 -20 30 -6 0 -11 6 -11 13 0 7 -11 36
-26 64 -25 52 -64 81 -126 97 -18 4 -30 15 -34 31 -3 14 -10 25 -16 25 -5 0
-6 -4 -3 -10 9 -15 -41 -12 -57 3 -7 6 -34 22 -59 35 -25 13 -60 36 -77 52
-17 16 -41 31 -52 35 -11 3 -20 11 -20 16 0 6 -4 8 -9 5 -5 -4 -11 -3 -13 2
-1 4 -30 29 -63 55 -33 26 -71 56 -83 67 -13 11 -49 37 -80 57 -32 21 -68 48
-81 60 l-24 21 37 7 c21 4 56 5 79 1 23 -4 53 -8 67 -10 153 -24 180 -24 180
3 0 11 -4 23 -10 26 -5 3 -10 25 -10 48 -1 23 -7 83 -15 132 -8 50 -20 137
-25 195 -6 58 -13 110 -15 117 -4 13 -45 6 -45 -8 0 -5 -8 -9 -18 -9 -38 0
-148 -44 -172 -68 -31 -33 -70 -90 -70 -102 0 -6 -3 -10 -8 -10 -4 0 -16 -16
-26 -35 -29 -54 -39 -50 -111 40 -111 139 -229 254 -293 286 -26 13 -48 27
-50 32 -2 4 -12 7 -22 7 -11 0 -43 8 -72 19 -29 10 -73 24 -97 32 -42 13 -71
32 -71 48 0 4 8 16 17 27 10 10 56 64 103 119 46 55 95 111 107 125 44 50 60
69 78 94 11 14 25 26 32 26 7 0 13 4 13 9 0 22 456 481 477 481 3 0 14 11 25
25 11 14 24 25 29 25 12 0 94 55 123 82 11 10 29 21 40 24 12 4 23 10 26 13
17 23 232 111 271 111 15 0 29 5 31 11 2 5 38 13 81 16 95 7 101 3 158 -113
22 -46 45 -86 50 -90 5 -3 9 -12 9 -20 0 -34 115 -144 173 -166 l44 -16 22
161 c12 89 25 164 29 167 4 3 8 19 9 35 3 33 5 41 21 100 5 22 13 63 17 90 4
28 13 61 20 75 7 14 20 65 29 114 20 108 28 120 76 111 19 -3 48 -8 63 -11z
m1944 -1709 c0 -8 -4 -12 -9 -9 -5 3 -6 10 -3 15 9 13 12 11 12 -6z m23 -67
c0 -16 -3 -19 -11 -11 -6 6 -8 16 -5 22 11 17 16 13 16 -11z m57 -778 c-2 -29
-14 -25 -14 5 0 13 3 22 8 20 4 -3 7 -14 6 -25z m-1677 -1505 c52 -9 108 -18
124 -20 16 -3 34 -9 40 -14 6 -4 29 -12 51 -15 22 -4 49 -13 60 -20 11 -8 35
-17 52 -20 17 -4 37 -14 44 -22 6 -8 17 -14 24 -14 7 0 15 -7 19 -15 3 -8 11
-15 17 -15 17 0 99 -87 99 -104 0 -8 4 -16 10 -18 5 -1 12 -29 16 -60 10 -90
-20 -154 -123 -256 -46 -45 -89 -82 -97 -82 -8 0 -16 -3 -18 -8 -5 -11 -135
-87 -198 -115 -114 -51 -214 -84 -325 -108 -33 -7 -64 -15 -70 -19 -5 -4 -26
-10 -45 -13 -19 -3 -62 -11 -95 -17 -115 -20 -398 -39 -499 -34 -157 9 -208
15 -336 41 -52 11 -106 26 -120 33 -14 7 -25 12 -25 11 0 -13 -126 51 -175 89
-60 47 -71 59 -97 107 -38 67 -28 175 22 248 20 30 100 112 146 150 52 44 217
132 309 165 19 7 39 17 44 22 6 4 18 8 28 8 10 0 26 4 36 10 23 13 202 60 229
60 12 0 23 4 25 9 2 6 39 13 83 16 44 3 96 10 115 16 98 27 475 30 630 4z"/>
<path d="M2366 4985 c4 -8 8 -15 10 -15 2 0 4 7 4 15 0 8 -4 15 -10 15 -5 0
-7 -7 -4 -15z"/>
<path d="M2400 4926 c0 -9 5 -16 10 -16 6 0 10 4 10 9 0 6 -4 13 -10 16 -5 3
-10 -1 -10 -9z"/>
<path d="M3071 4787 c-1 -79 21 -189 46 -229 13 -21 23 -39 23 -41 0 -2 22
-26 48 -53 27 -27 57 -64 67 -82 11 -17 23 -32 27 -32 4 0 8 -5 8 -11 0 -6 11
-25 25 -43 14 -18 25 -38 25 -44 0 -7 6 -12 14 -12 7 0 25 -9 39 -20 30 -24
127 -40 127 -21 0 6 11 11 25 11 14 0 25 5 25 10 0 6 7 10 16 10 19 0 83 48
137 102 21 21 41 38 45 38 11 1 110 165 118 194 3 14 12 30 20 37 8 6 14 17
14 25 0 7 7 19 15 27 8 8 19 35 24 58 l10 44 -39 -43 c-22 -23 -46 -42 -55
-42 -8 0 -15 -4 -15 -10 0 -5 -9 -10 -20 -10 -12 0 -40 -9 -63 -20 -23 -11
-73 -23 -112 -26 -38 -3 -77 -8 -85 -11 -31 -12 -215 -10 -240 2 -14 7 -41 16
-60 20 -37 8 -115 79 -160 145 -13 19 -27 37 -31 40 -3 3 -9 12 -12 20 -3 8
-6 -7 -6 -33z"/>
<path d="M2530 4710 c0 -5 7 -7 15 -4 8 4 15 8 15 10 0 2 -7 4 -15 4 -8 0 -15
-4 -15 -10z"/>
<path d="M2526 4591 c-4 -5 -2 -12 3 -15 5 -4 12 -2 15 3 4 5 2 12 -3 15 -5 4
-12 2 -15 -3z"/>
<path d="M2625 4560 c3 -5 8 -10 11 -10 2 0 4 5 4 10 0 6 -5 10 -11 10 -5 0
-7 -4 -4 -10z"/>
<path d="M2638 4293 c7 -3 16 -2 19 1 4 3 -2 6 -13 5 -11 0 -14 -3 -6 -6z"/>
<path d="M4393 4215 c0 -27 2 -38 4 -22 2 15 2 37 0 50 -2 12 -4 0 -4 -28z"/>
<path d="M2661 4124 c0 -11 3 -14 6 -6 3 7 2 16 -1 19 -3 4 -6 -2 -5 -13z"/>
<path d="M2675 4050 c4 -6 11 -8 16 -5 14 9 11 15 -7 15 -8 0 -12 -5 -9 -10z"/>
<path d="M2686 3965 c4 -8 8 -15 10 -15 2 0 4 7 4 15 0 8 -4 15 -10 15 -5 0
-7 -7 -4 -15z"/>
<path d="M4640 3924 c1 -14 29 -48 35 -42 3 2 -4 15 -15 28 -11 13 -20 19 -20
14z"/>
<path d="M4271 3894 c0 -12 6 -24 14 -28 8 -3 15 -1 15 4 0 6 -4 10 -9 10 -5
0 -12 8 -14 18 -4 13 -5 12 -6 -4z"/>
<path d="M4310 3830 c-3 -39 1 -86 10 -117 7 -25 8 -23 9 17 0 55 -16 139 -19
100z"/>
<path d="M2730 3804 c0 -8 5 -12 10 -9 6 4 8 11 5 16 -9 14 -15 11 -15 -7z"/>
<path d="M2832 3739 c2 -7 10 -15 17 -17 8 -3 12 1 9 9 -2 7 -10 15 -17 17 -8
3 -12 -1 -9 -9z"/>
<path d="M2748 3733 c7 -3 16 -2 19 1 4 3 -2 6 -13 5 -11 0 -14 -3 -6 -6z"/>
<path d="M2870 3656 c0 -7 7 -13 15 -13 8 0 15 4 15 8 0 4 -7 9 -15 13 -9 3
-15 0 -15 -8z"/>
<path d="M3650 3559 c0 -16 56 -23 65 -9 4 6 -3 10 -14 10 -10 0 -26 3 -35 6
-10 4 -16 1 -16 -7z"/>
<path d="M3787 3534 c-8 -8 1 -24 14 -24 5 0 9 7 9 15 0 15 -12 20 -23 9z"/>
<path d="M4040 3525 c0 -8 7 -15 16 -15 14 0 14 3 4 15 -7 8 -14 15 -16 15 -2
0 -4 -7 -4 -15z"/>
<path d="M2920 3496 c0 -2 7 -6 15 -10 8 -3 15 -1 15 4 0 6 -7 10 -15 10 -8 0
-15 -2 -15 -4z"/>
<path d="M3500 3463 c0 -7 6 -13 14 -13 8 0 21 -3 30 -6 10 -4 16 -1 16 9 0 9
-12 16 -30 19 -20 3 -30 0 -30 -9z"/>
<path d="M4100 3439 c0 -6 -9 -8 -21 -4 -15 5 -19 4 -15 -4 9 -13 58 -15 72
-2 5 5 23 11 39 14 19 2 11 5 -22 6 -32 0 -53 -3 -53 -10z"/>
<path d="M3022 3418 c3 -7 15 -15 28 -16 21 -4 22 -2 7 12 -19 19 -40 21 -35
4z"/>
<path d="M4026 3395 c-3 -9 0 -15 9 -15 8 0 15 7 15 15 0 8 -4 15 -9 15 -5 0
-11 -7 -15 -15z"/>
<path d="M3141 3366 c2 -2 18 -6 34 -10 22 -5 26 -4 15 4 -14 9 -59 15 -49 6z"/>
<path d="M3340 3357 c0 -12 8 -15 31 -12 33 4 53 15 28 15 -8 0 -24 3 -36 6
-17 5 -23 2 -23 -9z"/>
<path d="M3481 3334 c0 -11 3 -14 6 -6 3 7 2 16 -1 19 -3 4 -6 -2 -5 -13z"/>
<path d="M2980 3336 c0 -2 7 -6 15 -10 8 -3 15 -1 15 4 0 6 -7 10 -15 10 -8 0
-15 -2 -15 -4z"/>
<path d="M3000 3244 c0 -8 5 -12 10 -9 6 3 10 10 10 16 0 5 -4 9 -10 9 -5 0
-10 -7 -10 -16z"/>
<path d="M4480 3150 c-13 -9 -13 -10 0 -10 8 0 22 5 30 10 13 9 13 10 0 10 -8
0 -22 -5 -30 -10z"/>
<path d="M2960 3130 c0 -5 5 -10 11 -10 5 0 7 5 4 10 -3 6 -8 10 -11 10 -2 0
-4 -4 -4 -10z"/>
<path d="M2890 3046 c0 -9 7 -12 20 -9 11 3 20 9 20 14 0 5 -9 9 -20 9 -11 0
-20 -6 -20 -14z"/>
<path d="M3005 3050 c-3 -5 -2 -10 4 -10 5 0 13 5 16 10 3 6 2 10 -4 10 -5 0
-13 -4 -16 -10z"/>
<path d="M3646 3026 c-49 -65 -26 -50 34 22 6 6 7 12 2 12 -5 0 -21 -15 -36
-34z"/>
<path d="M2990 2965 c0 -16 16 -20 24 -6 3 5 -1 11 -9 15 -9 3 -15 0 -15 -9z"/>
<path d="M2900 2939 c0 -5 5 -7 10 -4 6 3 10 8 10 11 0 2 -4 4 -10 4 -5 0 -10
-5 -10 -11z"/>
<path d="M3140 2911 c0 -10 -7 -21 -15 -25 -26 -10 -16 -26 15 -26 26 0 30 3
30 29 0 16 -6 31 -15 35 -10 3 -15 -1 -15 -13z"/>
<path d="M4738 2838 c-3 -7 -7 -17 -9 -23 -2 -5 -13 -19 -25 -30 -12 -11 -24
-31 -28 -45 -6 -23 -6 -23 5 -5 7 11 21 29 32 40 20 21 40 65 34 72 -3 2 -7
-2 -9 -9z"/>
<path d="M3100 2795 c0 -8 7 -15 16 -15 14 0 14 3 4 15 -7 8 -14 15 -16 15 -2
0 -4 -7 -4 -15z"/>
<path d="M4560 2626 c0 -2 7 -6 15 -10 8 -3 15 -1 15 4 0 6 -7 10 -15 10 -8 0
-15 -2 -15 -4z"/>
<path d="M4538 2593 c7 -3 16 -2 19 1 4 3 -2 6 -13 5 -11 0 -14 -3 -6 -6z"/>
<path d="M4500 2576 c0 -2 7 -9 15 -16 12 -10 15 -10 15 4 0 9 -7 16 -15 16
-8 0 -15 -2 -15 -4z"/>
<path d="M4478 2533 c7 -3 16 -2 19 1 4 3 -2 6 -13 5 -11 0 -14 -3 -6 -6z"/>
<path d="M1688 2518 c5 -5 16 -8 23 -6 8 3 3 7 -10 11 -17 4 -21 3 -13 -5z"/>
<path d="M1725 2500 c-3 -5 -1 -10 4 -10 6 0 11 5 11 10 0 6 -2 10 -4 10 -3 0
-8 -4 -11 -10z"/>
<path d="M1760 2475 c0 -16 16 -20 24 -6 3 5 -1 11 -9 15 -9 3 -15 0 -15 -9z"/>
<path d="M4408 2483 c7 -3 16 -2 19 1 4 3 -2 6 -13 5 -11 0 -14 -3 -6 -6z"/>
<path d="M4376 2457 c3 -10 9 -15 12 -12 3 3 0 11 -7 18 -10 9 -11 8 -5 -6z"/>
<path d="M1795 2450 c3 -5 12 -7 20 -3 21 7 19 13 -6 13 -11 0 -18 -4 -14 -10z"/>
<path d="M4330 2430 c0 -5 7 -7 15 -4 8 4 15 8 15 10 0 2 -7 4 -15 4 -8 0 -15
-4 -15 -10z"/>
<path d="M4258 2373 c7 -3 16 -2 19 1 4 3 -2 6 -13 5 -11 0 -14 -3 -6 -6z"/>
<path d="M4228 2343 c7 -3 16 -2 19 1 4 3 -2 6 -13 5 -11 0 -14 -3 -6 -6z"/>
<path d="M3264 2248 c-5 -7 -3 -8 6 -3 7 4 15 3 19 -3 4 -7 13 -6 25 4 19 13
18 14 -11 14 -18 0 -35 -5 -39 -12z"/>
<path d="M2226 2195 c-3 -8 -1 -15 4 -15 6 0 10 7 10 15 0 8 -2 15 -4 15 -2 0
-6 -7 -10 -15z"/>
<path d="M3210 2196 c0 -17 16 -30 23 -19 3 5 -1 14 -9 21 -12 10 -14 10 -14
-2z"/>
<path d="M3373 1933 c9 -2 23 -2 30 0 6 3 -1 5 -18 5 -16 0 -22 -2 -12 -5z"/>
<path d="M3620 1920 c0 -5 7 -7 15 -4 8 4 15 8 15 10 0 2 -7 4 -15 4 -8 0 -15
-4 -15 -10z"/>
<path d="M3260 1876 c0 -11 8 -16 28 -15 15 0 21 3 12 6 -8 3 -21 10 -27 16
-9 7 -13 5 -13 -7z"/>
<path d="M3528 1833 c7 -3 16 -2 19 1 4 3 -2 6 -13 5 -11 0 -14 -3 -6 -6z"/>
<path d="M4798 1583 c7 -3 16 -2 19 1 4 3 -2 6 -13 5 -11 0 -14 -3 -6 -6z"/>
<path d="M3567 1592 c-21 -23 -21 -45 -1 -83 31 -61 65 -15 49 68 -7 37 -24
42 -48 15z"/>
<path d="M3256 1564 c-10 -25 -7 -91 5 -118 10 -21 15 -23 35 -14 22 10 23 16
19 71 -4 57 -15 76 -41 77 -7 0 -15 -7 -18 -16z"/>
<path d="M3025 1560 c-7 -11 -5 -113 2 -147 6 -25 40 -40 55 -25 14 14 12 119
-3 154 -11 28 -42 38 -54 18z"/>
<path d="M3579 1434 c-15 -19 -13 -118 4 -145 14 -23 24 -24 43 -5 11 11 13
29 8 73 -10 87 -27 111 -55 77z"/>
<path d="M3182 1408 c-18 -18 -15 -113 4 -132 19 -20 40 -20 47 -2 11 29 -15
146 -32 146 -4 0 -12 -5 -19 -12z"/>
<path d="M3266 1214 c-9 -25 -7 -64 4 -64 6 0 10 -16 10 -36 0 -19 5 -44 10
-55 14 -25 47 -24 55 2 9 26 -4 140 -17 157 -15 17 -55 15 -62 -4z"/>
<path d="M3104 1202 c-16 -11 -15 -113 2 -150 18 -38 42 -51 56 -31 15 23 0
162 -19 177 -19 14 -24 14 -39 4z"/>
<path d="M3599 1194 c-9 -12 -13 -37 -10 -82 3 -73 21 -103 50 -85 12 8 15 24
14 64 -6 114 -21 143 -54 103z"/>
<path d="M3222 938 c-14 -18 -3 -165 14 -178 9 -8 19 -7 34 2 20 12 21 19 17
81 -3 46 -10 74 -22 87 -21 23 -29 25 -43 8z"/>
<path d="M3618 938 c-3 -7 -6 -40 -7 -74 -2 -68 16 -97 47 -77 13 8 17 24 16
70 0 33 -4 68 -7 77 -7 19 -43 22 -49 4z"/>
<path d="M5732 4740 c0 -14 2 -19 5 -12 2 6 2 18 0 25 -3 6 -5 1 -5 -13z"/>
<path d="M5750 4699 c0 -16 6 -26 15 -26 19 0 18 7 0 31 -14 19 -15 19 -15 -5z"/>
<path d="M5787 4653 c-3 -5 -1 -17 4 -28 7 -17 8 -17 8 8 1 27 -4 34 -12 20z"/>
<path d="M5820 4571 c0 -6 5 -13 10 -16 6 -3 10 1 10 9 0 9 -4 16 -10 16 -5 0
-10 -4 -10 -9z"/>
<path d="M5848 4505 c2 -14 6 -25 8 -25 2 0 4 11 4 25 0 14 -4 25 -9 25 -4 0
-6 -11 -3 -25z"/>
<path d="M5880 4431 c0 -5 5 -13 10 -16 6 -3 10 -2 10 4 0 5 -4 13 -10 16 -5
3 -10 2 -10 -4z"/>
<path d="M5906 4365 c4 -8 8 -15 10 -15 2 0 4 7 4 15 0 8 -4 15 -10 15 -5 0
-7 -7 -4 -15z"/>
<path d="M5947 4260 c3 -11 7 -20 9 -20 2 0 4 9 4 20 0 11 -4 20 -9 20 -5 0
-7 -9 -4 -20z"/>
<path d="M6022 3970 c0 -19 2 -27 5 -17 2 9 2 25 0 35 -3 9 -5 1 -5 -18z"/>
<path d="M5666 3871 c-4 -7 -5 -15 -2 -18 9 -9 19 4 14 18 -4 11 -6 11 -12 0z"/>
<path d="M6061 3380 c0 -8 4 -24 9 -35 l9 -20 0 20 c0 11 -4 27 -9 35 -9 13
-10 13 -9 0z"/>
<path d="M5700 3260 c0 -23 15 -27 23 -6 3 8 -1 17 -9 20 -9 4 -14 -1 -14 -14z"/>
<path d="M6042 3080 c0 -14 2 -19 5 -12 2 6 2 18 0 25 -3 6 -5 1 -5 -13z"/>
<path d="M6016 2977 c3 -10 9 -15 12 -12 3 3 0 11 -7 18 -10 9 -11 8 -5 -6z"/>
<path d="M6000 2901 c0 -6 5 -13 10 -16 6 -3 10 1 10 9 0 9 -4 16 -10 16 -5 0
-10 -4 -10 -9z"/>
<path d="M5982 2820 c0 -14 2 -19 5 -12 2 6 2 18 0 25 -3 6 -5 1 -5 -13z"/>
<path d="M5965 2761 c-3 -5 -1 -12 5 -16 5 -3 10 1 10 9 0 18 -6 21 -15 7z"/>
<path d="M5942 2685 c0 -16 2 -22 5 -12 2 9 2 23 0 30 -3 6 -5 -1 -5 -18z"/>
<path d="M5921 2636 c-11 -13 -11 -20 -3 -28 8 -8 13 -7 18 5 10 27 0 41 -15
23z"/>
<path d="M5902 2570 c0 -14 2 -19 5 -12 2 6 2 18 0 25 -3 6 -5 1 -5 -13z"/>
<path d="M5883 2532 c-6 -4 -14 -25 -18 -47 l-7 -40 22 38 c22 40 23 62 3 49z"/>
</g>
</svg>
