<svg xmlns="http://www.w3.org/2000/svg" width="1920" height="1080"><path d="M256,1313L-37,1320L1064,1324Z" fill="#6c9962" stroke="#6c9962" stroke-width="1.51"/><path d="M583,1306L256,1313L1064,1324Z" fill="#5d935c" stroke="#5d935c" stroke-width="1.51"/><path d="M884,1299L583,1306L1064,1324Z" fill="#4b8c55" stroke="#4b8c55" stroke-width="1.51"/><path d="M438,-265L891,-254L1596,-262Z" fill="#bbe2ab" stroke="#bbe2ab" stroke-width="1.51"/><path d="M1153,-241L1451,-249L1596,-262Z" fill="#9ecc95" stroke="#9ecc95" stroke-width="1.51"/><path d="M891,-254L1153,-241L1596,-262Z" fill="#a9d79e" stroke="#a9d79e" stroke-width="1.51"/><path d="M1439,1322L1064,1324L1793,1341Z" fill="#196e3c" stroke="#196e3c" stroke-width="1.51"/><path d="M1595,1321L1439,1322L1793,1341Z" fill="#0f6436" stroke="#0f6436" stroke-width="1.51"/><path d="M2042,-172L2059,-40L2079,93Z" fill="#7ea26e" stroke="#7ea26e" stroke-width="1.51"/><path d="M1884,884L1920,995L2090,792Z" fill="#18753e" stroke="#18753e" stroke-width="1.51"/><path d="M1906,1301L1793,1341L2090,1283Z" fill="#005730" stroke="#005730" stroke-width="1.51"/><path d="M1985,552L2077,726L2111,520Z" fill="#39864e" stroke="#39864e" stroke-width="1.51"/><path d="M2063,378L1985,552L2111,520Z" fill="#498c55" stroke="#498c55" stroke-width="1.51"/><path d="M2077,726L2090,792L2111,520Z" fill="#2d7f48" stroke="#2d7f48" stroke-width="1.51"/><path d="M2075,262L2063,378L2111,520Z" fill="#559059" stroke="#559059" stroke-width="1.51"/><path d="M2079,93L2075,262L2111,520Z" fill="#60945c" stroke="#60945c" stroke-width="1.51"/><path d="M2090,792L1920,995L2122,993Z" fill="#156d3a" stroke="#156d3a" stroke-width="1.51"/><path d="M1920,995L2051,1117L2122,993Z" fill="#0b6636" stroke="#0b6636" stroke-width="1.51"/><path d="M2051,1117L2090,1283L2122,993Z" fill="#035c32" stroke="#035c32" stroke-width="1.51"/><path d="M2111,520L2090,792L2122,993Z" fill="#207742" stroke="#207742" stroke-width="1.51"/><path d="M1596,-262L1831,-194L1970,-244Z" fill="#8cb586" stroke="#8cb586" stroke-width="1.51"/><path d="M1985,552L1921,666L2077,726Z" fill="#33864d" stroke="#33864d" stroke-width="1.51"/><path d="M1923,212L2075,262L2079,93Z" fill="#6d9c63" stroke="#6d9c63" stroke-width="1.51"/><path d="M1920,995L1920,1085L2051,1117Z" fill="#096837" stroke="#096837" stroke-width="1.51"/><path d="M2059,-40L1896,74L2079,93Z" fill="#79a36b" stroke="#79a36b" stroke-width="1.51"/><path d="M2077,726L1921,666L2090,792Z" fill="#267f46" stroke="#267f46" stroke-width="1.51"/><path d="M1921,666L1884,884L2090,792Z" fill="#217f45" stroke="#217f45" stroke-width="1.51"/><path d="M2051,1117L1906,1301L2090,1283Z" fill="#005831" stroke="#005831" stroke-width="1.51"/><path d="M1920,1085L1906,1301L2051,1117Z" fill="#006134" stroke="#006134" stroke-width="1.51"/><path d="M1880,334L2063,378L2075,262Z" fill="#5f985d" stroke="#5f985d" stroke-width="1.51"/><path d="M1923,212L1880,334L2075,262Z" fill="#669d61" stroke="#669d61" stroke-width="1.51"/><path d="M1896,74L1923,212L2079,93Z" fill="#75a368" stroke="#75a368" stroke-width="1.51"/><path d="M2042,-172L1880,-73L2059,-40Z" fill="#83a773" stroke="#83a773" stroke-width="1.51"/><path d="M1880,334L1985,552L2063,378Z" fill="#53945a" stroke="#53945a" stroke-width="1.51"/><path d="M1880,334L1834,397L1985,552Z" fill="#53995b" stroke="#53995b" stroke-width="1.51"/><path d="M1880,-73L1896,74L2059,-40Z" fill="#7fa96f" stroke="#7fa96f" stroke-width="1.51"/><path d="M1970,-244L1880,-73L2042,-172Z" fill="#85aa7a" stroke="#85aa7a" stroke-width="1.51"/><path d="M1758,1174L1906,1301L1920,1085Z" fill="#006536" stroke="#006536" stroke-width="1.51"/><path d="M1831,-194L1880,-73L1970,-244Z" fill="#87af7d" stroke="#87af7d" stroke-width="1.51"/><path d="M1819,588L1921,666L1985,552Z" fill="#3b8f52" stroke="#3b8f52" stroke-width="1.51"/><path d="M1834,397L1819,588L1985,552Z" fill="#489658" stroke="#489658" stroke-width="1.51"/><path d="M1831,-194L1823,-110L1880,-73Z" fill="#88b17a" stroke="#88b17a" stroke-width="1.51"/><path d="M1747,686L1757,862L1884,884Z" fill="#238647" stroke="#238647" stroke-width="1.51"/><path d="M1880,-73L1795,53L1896,74Z" fill="#80ad70" stroke="#80ad70" stroke-width="1.51"/><path d="M1808,976L1920,1085L1920,995Z" fill="#0e703a" stroke="#0e703a" stroke-width="1.51"/><path d="M1884,884L1808,976L1920,995Z" fill="#14753c" stroke="#14753c" stroke-width="1.51"/><path d="M1747,686L1884,884L1921,666Z" fill="#26894a" stroke="#26894a" stroke-width="1.51"/><path d="M1896,74L1770,207L1923,212Z" fill="#74a969" stroke="#74a969" stroke-width="1.51"/><path d="M1770,207L1880,334L1923,212Z" fill="#6aa564" stroke="#6aa564" stroke-width="1.51"/><path d="M1795,53L1770,207L1896,74Z" fill="#7aad6d" stroke="#7aad6d" stroke-width="1.51"/><path d="M1758,1174L1793,1341L1906,1301Z" fill="#036034" stroke="#036034" stroke-width="1.51"/><path d="M1819,588L1747,686L1921,666Z" fill="#379150" stroke="#379150" stroke-width="1.51"/><path d="M1808,976L1758,1174L1920,1085Z" fill="#0a6f3a" stroke="#0a6f3a" stroke-width="1.51"/><path d="M1823,-110L1795,53L1880,-73Z" fill="#85b174" stroke="#85b174" stroke-width="1.51"/><path d="M1757,862L1808,976L1884,884Z" fill="#1b7c41" stroke="#1b7c41" stroke-width="1.51"/><path d="M1770,207L1834,397L1880,334Z" fill="#65a462" stroke="#65a462" stroke-width="1.51"/><path d="M1238,1294L1064,1324L1439,1322Z" fill="#247b44" stroke="#247b44" stroke-width="1.51"/><path d="M1690,1142L1758,1174L1808,976Z" fill="#0e713b" stroke="#0e713b" stroke-width="1.51"/><path d="M1634,1021L1690,1142L1808,976Z" fill="#15763d" stroke="#15763d" stroke-width="1.51"/><path d="M1609,-29L1795,53L1823,-110Z" fill="#88b575" stroke="#88b575" stroke-width="1.51"/><path d="M1596,-262L1823,-110L1831,-194Z" fill="#8db782" stroke="#8db782" stroke-width="1.51"/><path d="M1619,526L1819,588L1834,397Z" fill="#4e9d5b" stroke="#4e9d5b" stroke-width="1.51"/><path d="M1663,357L1619,526L1834,397Z" fill="#5ba45f" stroke="#5ba45f" stroke-width="1.51"/><path d="M1770,207L1663,357L1834,397Z" fill="#67a763" stroke="#67a763" stroke-width="1.51"/><path d="M1596,-262L1609,-29L1823,-110Z" fill="#8fba7f" stroke="#8fba7f" stroke-width="1.51"/><path d="M1619,526L1747,686L1819,588Z" fill="#419856" stroke="#419856" stroke-width="1.51"/><path d="M1758,1174L1595,1321L1793,1341Z" fill="#096436" stroke="#096436" stroke-width="1.51"/><path d="M1594,130L1770,207L1795,53Z" fill="#7db16e" stroke="#7db16e" stroke-width="1.51"/><path d="M1757,862L1634,1021L1808,976Z" fill="#1b7c3f" stroke="#1b7c3f" stroke-width="1.51"/><path d="M1747,686L1598,741L1757,862Z" fill="#2b8f4c" stroke="#2b8f4c" stroke-width="1.51"/><path d="M1624,229L1663,357L1770,207Z" fill="#70ac68" stroke="#70ac68" stroke-width="1.51"/><path d="M1609,-29L1594,130L1795,53Z" fill="#85b673" stroke="#85b673" stroke-width="1.51"/><path d="M1583,847L1634,1021L1757,862Z" fill="#228343" stroke="#228343" stroke-width="1.51"/><path d="M1598,741L1583,847L1757,862Z" fill="#2a8c4a" stroke="#2a8c4a" stroke-width="1.51"/><path d="M1690,1142L1595,1321L1758,1174Z" fill="#0c6c38" stroke="#0c6c38" stroke-width="1.51"/><path d="M1594,130L1624,229L1770,207Z" fill="#79b16c" stroke="#79b16c" stroke-width="1.51"/><path d="M1619,526L1598,741L1747,686Z" fill="#3d9954" stroke="#3d9954" stroke-width="1.51"/><path d="M1484,669L1598,741L1619,526Z" fill="#419d57" stroke="#419d57" stroke-width="1.51"/><path d="M1634,1021L1496,1116L1690,1142Z" fill="#17783e" stroke="#17783e" stroke-width="1.51"/><path d="M1496,1116L1595,1321L1690,1142Z" fill="#12713b" stroke="#12713b" stroke-width="1.51"/><path d="M1596,-262L1435,-104L1609,-29Z" fill="#94c182" stroke="#94c182" stroke-width="1.51"/><path d="M1448,432L1619,526L1663,357Z" fill="#5ea962" stroke="#5ea962" stroke-width="1.51"/><path d="M1624,229L1470,213L1663,357Z" fill="#73b26a" stroke="#73b26a" stroke-width="1.51"/><path d="M1470,213L1448,432L1663,357Z" fill="#6eb269" stroke="#6eb269" stroke-width="1.51"/><path d="M1496,1116L1439,1322L1595,1321Z" fill="#16713c" stroke="#16713c" stroke-width="1.51"/><path d="M1451,-249L1435,-104L1596,-262Z" fill="#98c58c" stroke="#98c58c" stroke-width="1.51"/><path d="M1448,432L1482,523L1619,526Z" fill="#59aa62" stroke="#59aa62" stroke-width="1.51"/><path d="M1482,523L1484,669L1619,526Z" fill="#4da55d" stroke="#4da55d" stroke-width="1.51"/><path d="M1583,847L1505,848L1634,1021Z" fill="#268845" stroke="#268845" stroke-width="1.51"/><path d="M1505,848L1456,1038L1634,1021Z" fill="#248543" stroke="#248543" stroke-width="1.51"/><path d="M1456,1038L1496,1116L1634,1021Z" fill="#1d7e41" stroke="#1d7e41" stroke-width="1.51"/><path d="M1451,146L1594,130L1609,-29Z" fill="#87bb74" stroke="#87bb74" stroke-width="1.51"/><path d="M1594,130L1470,213L1624,229Z" fill="#7db66e" stroke="#7db66e" stroke-width="1.51"/><path d="M1380,-9L1451,146L1609,-29Z" fill="#8ec17a" stroke="#8ec17a" stroke-width="1.51"/><path d="M1380,-9L1390,97L1451,146Z" fill="#8ec57b" stroke="#8ec57b" stroke-width="1.51"/><path d="M1505,848L1583,847L1598,741Z" fill="#2e914c" stroke="#2e914c" stroke-width="1.51"/><path d="M1435,-104L1380,-9L1609,-29Z" fill="#94c47e" stroke="#94c47e" stroke-width="1.51"/><path d="M1451,146L1470,213L1594,130Z" fill="#82bb72" stroke="#82bb72" stroke-width="1.51"/><path d="M1484,669L1505,848L1598,741Z" fill="#339951" stroke="#339951" stroke-width="1.51"/><path d="M1386,-167L1435,-104L1451,-249Z" fill="#9bc98c" stroke="#9bc98c" stroke-width="1.51"/><path d="M1304,282L1448,432L1470,213Z" fill="#76bb6f" stroke="#76bb6f" stroke-width="1.51"/><path d="M1482,523L1341,657L1484,669Z" fill="#4ca85e" stroke="#4ca85e" stroke-width="1.51"/><path d="M1280,1139L1327,1272L1496,1116Z" fill="#1f8045" stroke="#1f8045" stroke-width="1.51"/><path d="M1327,1272L1439,1322L1496,1116Z" fill="#1b7740" stroke="#1b7740" stroke-width="1.51"/><path d="M1346,1039L1456,1038L1505,848Z" fill="#288a48" stroke="#288a48" stroke-width="1.51"/><path d="M1338,788L1346,1039L1505,848Z" fill="#30944e" stroke="#30944e" stroke-width="1.51"/><path d="M1484,669L1338,788L1505,848Z" fill="#379d53" stroke="#379d53" stroke-width="1.51"/><path d="M1359,500L1341,657L1482,523Z" fill="#55ae63" stroke="#55ae63" stroke-width="1.51"/><path d="M1341,657L1338,788L1484,669Z" fill="#41a55a" stroke="#41a55a" stroke-width="1.51"/><path d="M1456,1038L1346,1039L1496,1116Z" fill="#228445" stroke="#228445" stroke-width="1.51"/><path d="M1346,1039L1280,1139L1496,1116Z" fill="#238647" stroke="#238647" stroke-width="1.51"/><path d="M1327,1272L1238,1294L1439,1322Z" fill="#1f7742" stroke="#1f7742" stroke-width="1.51"/><path d="M1448,432L1359,500L1482,523Z" fill="#5eb066" stroke="#5eb066" stroke-width="1.51"/><path d="M1304,282L1281,422L1448,432Z" fill="#71bc6f" stroke="#71bc6f" stroke-width="1.51"/><path d="M1451,146L1304,282L1470,213Z" fill="#81bf74" stroke="#81bf74" stroke-width="1.51"/><path d="M1390,97L1304,282L1451,146Z" fill="#87c377" stroke="#87c377" stroke-width="1.51"/><path d="M1153,-241L1386,-167L1451,-249Z" fill="#a1d095" stroke="#a1d095" stroke-width="1.51"/><path d="M1338,788L1218,839L1346,1039Z" fill="#359b52" stroke="#359b52" stroke-width="1.51"/><path d="M1281,422L1359,500L1448,432Z" fill="#66b66b" stroke="#66b66b" stroke-width="1.51"/><path d="M1386,-167L1380,-9L1435,-104Z" fill="#9bca85" stroke="#9bca85" stroke-width="1.51"/><path d="M1229,-33L1380,-9L1386,-167Z" fill="#9dcf86" stroke="#9dcf86" stroke-width="1.51"/><path d="M1172,204L1304,282L1390,97Z" fill="#89c97a" stroke="#89c97a" stroke-width="1.51"/><path d="M1163,98L1172,204L1390,97Z" fill="#93ce80" stroke="#93ce80" stroke-width="1.51"/><path d="M1380,-9L1229,-33L1390,97Z" fill="#97cc82" stroke="#97cc82" stroke-width="1.51"/><path d="M1229,-33L1163,98L1390,97Z" fill="#98d083" stroke="#98d083" stroke-width="1.51"/><path d="M1194,540L1341,657L1359,500Z" fill="#59b467" stroke="#59b467" stroke-width="1.51"/><path d="M1153,-241L1229,-33L1386,-167Z" fill="#a3d491" stroke="#a3d491" stroke-width="1.51"/><path d="M1236,372L1281,422L1304,282Z" fill="#77c273" stroke="#77c273" stroke-width="1.51"/><path d="M1218,839L1137,997L1346,1039Z" fill="#359851" stroke="#359851" stroke-width="1.51"/><path d="M1281,422L1194,540L1359,500Z" fill="#65ba6c" stroke="#65ba6c" stroke-width="1.51"/><path d="M1280,1139L1238,1294L1327,1272Z" fill="#238046" stroke="#238046" stroke-width="1.51"/><path d="M1218,839L1338,788L1341,657Z" fill="#3ea75a" stroke="#3ea75a" stroke-width="1.51"/><path d="M1136,640L1218,839L1341,657Z" fill="#49af61" stroke="#49af61" stroke-width="1.51"/><path d="M1137,997L1280,1139L1346,1039Z" fill="#2c904d" stroke="#2c904d" stroke-width="1.51"/><path d="M1194,540L1136,640L1341,657Z" fill="#58b567" stroke="#58b567" stroke-width="1.51"/><path d="M1137,997L1172,1166L1280,1139Z" fill="#30904e" stroke="#30904e" stroke-width="1.51"/><path d="M1172,1166L1238,1294L1280,1139Z" fill="#288749" stroke="#288749" stroke-width="1.51"/><path d="M1172,204L1236,372L1304,282Z" fill="#82c779" stroke="#82c779" stroke-width="1.51"/><path d="M891,-254L1079,-217L1153,-241Z" fill="#b5dfa5" stroke="#b5dfa5" stroke-width="1.51"/><path d="M1136,640L1083,705L1218,839Z" fill="#50b163" stroke="#50b163" stroke-width="1.51"/><path d="M1236,372L1194,540L1281,422Z" fill="#6ebf71" stroke="#6ebf71" stroke-width="1.51"/><path d="M1085,883L1137,997L1218,839Z" fill="#41a158" stroke="#41a158" stroke-width="1.51"/><path d="M1153,-241L1079,-217L1229,-33Z" fill="#acd998" stroke="#acd998" stroke-width="1.51"/><path d="M1079,-217L1007,-84L1229,-33Z" fill="#aedb95" stroke="#aedb95" stroke-width="1.51"/><path d="M1060,444L1194,540L1236,372Z" fill="#73c274" stroke="#73c274" stroke-width="1.51"/><path d="M1172,204L1060,444L1236,372Z" fill="#82c87a" stroke="#82c87a" stroke-width="1.51"/><path d="M1172,1166L1064,1324L1238,1294Z" fill="#2f844a" stroke="#2f844a" stroke-width="1.51"/><path d="M1007,-84L1163,98L1229,-33Z" fill="#a6d78c" stroke="#a6d78c" stroke-width="1.51"/><path d="M1051,1193L1064,1324L1172,1166Z" fill="#368a4e" stroke="#368a4e" stroke-width="1.51"/><path d="M998,217L1060,444L1172,204Z" fill="#8fce80" stroke="#8fce80" stroke-width="1.51"/><path d="M1083,705L1085,883L1218,839Z" fill="#4aab5f" stroke="#4aab5f" stroke-width="1.51"/><path d="M1007,-84L985,83L1163,98Z" fill="#a9da8e" stroke="#a9da8e" stroke-width="1.51"/><path d="M1137,997L1008,1043L1172,1166Z" fill="#3c9653" stroke="#3c9653" stroke-width="1.51"/><path d="M1008,1043L1051,1193L1172,1166Z" fill="#3b9252" stroke="#3b9252" stroke-width="1.51"/><path d="M1003,564L1136,640L1194,540Z" fill="#66bc6f" stroke="#66bc6f" stroke-width="1.51"/><path d="M1060,444L1003,564L1194,540Z" fill="#70c274" stroke="#70c274" stroke-width="1.51"/><path d="M985,83L998,217L1163,98Z" fill="#a2d789" stroke="#a2d789" stroke-width="1.51"/><path d="M1163,98L998,217L1172,204Z" fill="#99d284" stroke="#99d284" stroke-width="1.51"/><path d="M1085,883L1008,1043L1137,997Z" fill="#449e58" stroke="#449e58" stroke-width="1.51"/><path d="M1003,564L1083,705L1136,640Z" fill="#62ba6d" stroke="#62ba6d" stroke-width="1.51"/><path d="M998,217L924,255L1060,444Z" fill="#93d283" stroke="#93d283" stroke-width="1.51"/><path d="M924,255L924,430L1060,444Z" fill="#8ccf81" stroke="#8ccf81" stroke-width="1.51"/><path d="M913,-110L1007,-84L1079,-217Z" fill="#b7e09c" stroke="#b7e09c" stroke-width="1.51"/><path d="M1003,564L937,590L1083,705Z" fill="#6abf71" stroke="#6abf71" stroke-width="1.51"/><path d="M937,590L905,653L1083,705Z" fill="#69be71" stroke="#69be71" stroke-width="1.51"/><path d="M905,653L853,848L1083,705Z" fill="#60b96c" stroke="#60b96c" stroke-width="1.51"/><path d="M893,994L1008,1043L1085,883Z" fill="#4ca15b" stroke="#4ca15b" stroke-width="1.51"/><path d="M853,848L893,994L1085,883Z" fill="#55a961" stroke="#55a961" stroke-width="1.51"/><path d="M1083,705L853,848L1085,883Z" fill="#55b065" stroke="#55b065" stroke-width="1.51"/><path d="M1051,1193L884,1299L1064,1324Z" fill="#3e8951" stroke="#3e8951" stroke-width="1.51"/><path d="M891,-254L913,-110L1079,-217Z" fill="#bbe2a5" stroke="#bbe2a5" stroke-width="1.51"/><path d="M1008,1043L882,1136L1051,1193Z" fill="#459757" stroke="#459757" stroke-width="1.51"/><path d="M924,430L1003,564L1060,444Z" fill="#7dc87a" stroke="#7dc87a" stroke-width="1.51"/><path d="M882,1136L884,1299L1051,1193Z" fill="#459256" stroke="#459256" stroke-width="1.51"/><path d="M850,71L924,255L985,83Z" fill="#acdc8f" stroke="#acdc8f" stroke-width="1.51"/><path d="M913,-110L850,71L985,83Z" fill="#b5e095" stroke="#b5e095" stroke-width="1.51"/><path d="M985,83L924,255L998,217Z" fill="#a3d88a" stroke="#a3d88a" stroke-width="1.51"/><path d="M924,430L937,590L1003,564Z" fill="#7ac779" stroke="#7ac779" stroke-width="1.51"/><path d="M913,-110L985,83L1007,-84Z" fill="#b5e096" stroke="#b5e096" stroke-width="1.51"/><path d="M893,994L882,1136L1008,1043Z" fill="#4e9e5b" stroke="#4e9e5b" stroke-width="1.51"/><path d="M732,1255L583,1306L884,1299Z" fill="#569259" stroke="#569259" stroke-width="1.51"/><path d="M438,-265L743,-176L891,-254Z" fill="#d3edb3" stroke="#d3edb3" stroke-width="1.51"/><path d="M717,703L853,848L905,653Z" fill="#6dbf70" stroke="#6dbf70" stroke-width="1.51"/><path d="M770,440L924,430L924,255Z" fill="#96d384" stroke="#96d384" stroke-width="1.51"/><path d="M723,295L770,440L924,255Z" fill="#a1d889" stroke="#a1d889" stroke-width="1.51"/><path d="M850,71L762,139L924,255Z" fill="#b0de90" stroke="#b0de90" stroke-width="1.51"/><path d="M700,556L905,653L937,590Z" fill="#7bc779" stroke="#7bc779" stroke-width="1.51"/><path d="M770,440L700,556L937,590Z" fill="#88cd7f" stroke="#88cd7f" stroke-width="1.51"/><path d="M924,430L770,440L937,590Z" fill="#87cc7f" stroke="#87cc7f" stroke-width="1.51"/><path d="M438,-265L615,-163L743,-176Z" fill="#d9f0b2" stroke="#d9f0b2" stroke-width="1.51"/><path d="M882,1136L732,1255L884,1299Z" fill="#4f9458" stroke="#4f9458" stroke-width="1.51"/><path d="M710,-98L850,71L913,-110Z" fill="#c2e59b" stroke="#c2e59b" stroke-width="1.51"/><path d="M891,-254L743,-176L913,-110Z" fill="#c4e6a7" stroke="#c4e6a7" stroke-width="1.51"/><path d="M762,139L723,295L924,255Z" fill="#acdd8e" stroke="#acdd8e" stroke-width="1.51"/><path d="M754,1136L732,1255L882,1136Z" fill="#559a5c" stroke="#559a5c" stroke-width="1.51"/><path d="M754,1136L882,1136L893,994Z" fill="#549f5d" stroke="#549f5d" stroke-width="1.51"/><path d="M743,-176L710,-98L913,-110Z" fill="#c8e8a4" stroke="#c8e8a4" stroke-width="1.51"/><path d="M853,848L752,868L893,994Z" fill="#60ae65" stroke="#60ae65" stroke-width="1.51"/><path d="M700,556L717,703L905,653Z" fill="#7dc779" stroke="#7dc779" stroke-width="1.51"/><path d="M752,868L686,995L893,994Z" fill="#62ab64" stroke="#62ab64" stroke-width="1.51"/><path d="M686,995L754,1136L893,994Z" fill="#5da561" stroke="#5da561" stroke-width="1.51"/><path d="M717,703L752,868L853,848Z" fill="#6cb96d" stroke="#6cb96d" stroke-width="1.51"/><path d="M710,-98L762,139L850,71Z" fill="#c0e599" stroke="#c0e599" stroke-width="1.51"/><path d="M633,-104L554,120L710,-98Z" fill="#d1eca1" stroke="#d1eca1" stroke-width="1.51"/><path d="M710,-98L554,120L762,139Z" fill="#c7e89c" stroke="#c7e89c" stroke-width="1.51"/><path d="M633,244L723,295L762,139Z" fill="#b5e092" stroke="#b5e092" stroke-width="1.51"/><path d="M723,295L547,348L770,440Z" fill="#a8db8c" stroke="#a8db8c" stroke-width="1.51"/><path d="M547,348L700,556L770,440Z" fill="#9ed687" stroke="#9ed687" stroke-width="1.51"/><path d="M717,703L536,874L752,868Z" fill="#75bd70" stroke="#75bd70" stroke-width="1.51"/><path d="M686,995L604,1029L754,1136Z" fill="#65a763" stroke="#65a763" stroke-width="1.51"/><path d="M604,1172L732,1255L754,1136Z" fill="#5d9d5e" stroke="#5d9d5e" stroke-width="1.51"/><path d="M554,120L633,244L762,139Z" fill="#c0e597" stroke="#c0e597" stroke-width="1.51"/><path d="M536,874L686,995L752,868Z" fill="#6fb46a" stroke="#6fb46a" stroke-width="1.51"/><path d="M604,1029L604,1172L754,1136Z" fill="#64a462" stroke="#64a462" stroke-width="1.51"/><path d="M565,678L536,874L717,703Z" fill="#7fc577" stroke="#7fc577" stroke-width="1.51"/><path d="M700,556L565,678L717,703Z" fill="#86cb7c" stroke="#86cb7c" stroke-width="1.51"/><path d="M615,-163L710,-98L743,-176Z" fill="#d1eca9" stroke="#d1eca9" stroke-width="1.51"/><path d="M547,348L544,576L700,556Z" fill="#9dd688" stroke="#9dd688" stroke-width="1.51"/><path d="M615,-163L633,-104L710,-98Z" fill="#d4eda8" stroke="#d4eda8" stroke-width="1.51"/><path d="M633,244L547,348L723,295Z" fill="#b3e091" stroke="#b3e091" stroke-width="1.51"/><path d="M604,1172L583,1306L732,1255Z" fill="#60995e" stroke="#60995e" stroke-width="1.51"/><path d="M544,576L565,678L700,556Z" fill="#90d081" stroke="#90d081" stroke-width="1.51"/><path d="M483,-47L554,120L633,-104Z" fill="#d5eea3" stroke="#d5eea3" stroke-width="1.51"/><path d="M536,874L604,1029L686,995Z" fill="#70b069" stroke="#70b069" stroke-width="1.51"/><path d="M407,501L544,576L547,348Z" fill="#a7da8c" stroke="#a7da8c" stroke-width="1.51"/><path d="M435,1245L256,1313L583,1306Z" fill="#6e9c63" stroke="#6e9c63" stroke-width="1.51"/><path d="M604,1029L489,1125L604,1172Z" fill="#6ba866" stroke="#6ba866" stroke-width="1.51"/><path d="M554,120L452,232L633,244Z" fill="#c4e799" stroke="#c4e799" stroke-width="1.51"/><path d="M452,232L547,348L633,244Z" fill="#bce395" stroke="#bce395" stroke-width="1.51"/><path d="M615,-163L483,-47L633,-104Z" fill="#d9efa9" stroke="#d9efa9" stroke-width="1.51"/><path d="M437,728L425,795L536,874Z" fill="#86c578" stroke="#86c578" stroke-width="1.51"/><path d="M437,728L536,874L565,678Z" fill="#85c779" stroke="#85c779" stroke-width="1.51"/><path d="M536,874L420,1022L604,1029Z" fill="#76b36c" stroke="#76b36c" stroke-width="1.51"/><path d="M435,1245L583,1306L604,1172Z" fill="#679d61" stroke="#679d61" stroke-width="1.51"/><path d="M438,-265L483,-47L615,-163Z" fill="#dff2b1" stroke="#dff2b1" stroke-width="1.51"/><path d="M420,1022L489,1125L604,1029Z" fill="#73ad69" stroke="#73ad69" stroke-width="1.51"/><path d="M489,1125L435,1245L604,1172Z" fill="#6ca465" stroke="#6ca465" stroke-width="1.51"/><path d="M434,344L407,501L547,348Z" fill="#b4e091" stroke="#b4e091" stroke-width="1.51"/><path d="M483,-47L461,131L554,120Z" fill="#d4eda1" stroke="#d4eda1" stroke-width="1.51"/><path d="M461,131L452,232L554,120Z" fill="#cceb9d" stroke="#cceb9d" stroke-width="1.51"/><path d="M452,232L434,344L547,348Z" fill="#bee496" stroke="#bee496" stroke-width="1.51"/><path d="M544,576L437,728L565,678Z" fill="#90ce80" stroke="#90ce80" stroke-width="1.51"/><path d="M407,501L437,728L544,576Z" fill="#9bd486" stroke="#9bd486" stroke-width="1.51"/><path d="M319,947L420,1022L425,795Z" fill="#83bb73" stroke="#83bb73" stroke-width="1.51"/><path d="M425,795L420,1022L536,874Z" fill="#7fbc72" stroke="#7fbc72" stroke-width="1.51"/><path d="M407,501L275,590L437,728Z" fill="#a1d689" stroke="#a1d689" stroke-width="1.51"/><path d="M332,-39L461,131L483,-47Z" fill="#dcf2a6" stroke="#dcf2a6" stroke-width="1.51"/><path d="M438,-265L332,-39L483,-47Z" fill="#e5f5b0" stroke="#e5f5b0" stroke-width="1.51"/><path d="M240,1146L435,1245L489,1125Z" fill="#75a869" stroke="#75a869" stroke-width="1.51"/><path d="M420,1022L240,1146L489,1125Z" fill="#7aae6c" stroke="#7aae6c" stroke-width="1.51"/><path d="M257,-243L332,-39L438,-265Z" fill="#ebf8b9" stroke="#ebf8b9" stroke-width="1.51"/><path d="M294,872L319,947L425,795Z" fill="#89c277" stroke="#89c277" stroke-width="1.51"/><path d="M275,590L273,689L437,728Z" fill="#9cd385" stroke="#9cd385" stroke-width="1.51"/><path d="M324,234L434,344L452,232Z" fill="#c7e89a" stroke="#c7e89a" stroke-width="1.51"/><path d="M332,-39L259,72L461,131Z" fill="#dff2a7" stroke="#dff2a7" stroke-width="1.51"/><path d="M324,234L452,232L461,131Z" fill="#cdeb9d" stroke="#cdeb9d" stroke-width="1.51"/><path d="M259,72L324,234L461,131Z" fill="#d8efa2" stroke="#d8efa2" stroke-width="1.51"/><path d="M249,368L407,501L434,344Z" fill="#bae395" stroke="#bae395" stroke-width="1.51"/><path d="M273,689L425,795L437,728Z" fill="#91ce7f" stroke="#91ce7f" stroke-width="1.51"/><path d="M240,1146L256,1313L435,1245Z" fill="#77a46a" stroke="#77a46a" stroke-width="1.51"/><path d="M324,234L249,368L434,344Z" fill="#c6e89a" stroke="#c6e89a" stroke-width="1.51"/><path d="M319,947L240,1146L420,1022Z" fill="#80b36f" stroke="#80b36f" stroke-width="1.51"/><path d="M273,689L294,872L425,795Z" fill="#90ca7e" stroke="#90ca7e" stroke-width="1.51"/><path d="M249,368L275,590L407,501Z" fill="#b3df92" stroke="#b3df92" stroke-width="1.51"/><path d="M92,1276L-37,1320L256,1313Z" fill="#7ea16e" stroke="#7ea16e" stroke-width="1.51"/><path d="M249,368L105,539L275,590Z" fill="#b6e195" stroke="#b6e195" stroke-width="1.51"/><path d="M186,1025L240,1146L319,947Z" fill="#84b572" stroke="#84b572" stroke-width="1.51"/><path d="M259,72L181,111L324,234Z" fill="#def2a6" stroke="#def2a6" stroke-width="1.51"/><path d="M186,-35L259,72L332,-39Z" fill="#e8f6ad" stroke="#e8f6ad" stroke-width="1.51"/><path d="M257,-243L186,-35L332,-39Z" fill="#eef8b4" stroke="#eef8b4" stroke-width="1.51"/><path d="M106,-155L186,-35L257,-243Z" fill="#f3fabb" stroke="#f3fabb" stroke-width="1.51"/><path d="M124,265L249,368L324,234Z" fill="#cfeb9f" stroke="#cfeb9f" stroke-width="1.51"/><path d="M181,111L124,265L324,234Z" fill="#d9f0a4" stroke="#d9f0a4" stroke-width="1.51"/><path d="M273,689L112,892L294,872Z" fill="#93c97f" stroke="#93c97f" stroke-width="1.51"/><path d="M294,872L186,1025L319,947Z" fill="#88bc75" stroke="#88bc75" stroke-width="1.51"/><path d="M114,647L112,892L273,689Z" fill="#9cd286" stroke="#9cd286" stroke-width="1.51"/><path d="M112,892L186,1025L294,872Z" fill="#8dbf79" stroke="#8dbf79" stroke-width="1.51"/><path d="M115,353L105,539L249,368Z" fill="#c2e69b" stroke="#c2e69b" stroke-width="1.51"/><path d="M240,1146L92,1276L256,1313Z" fill="#7ca56d" stroke="#7ca56d" stroke-width="1.51"/><path d="M114,647L273,689L275,590Z" fill="#a5d88b" stroke="#a5d88b" stroke-width="1.51"/><path d="M105,539L114,647L275,590Z" fill="#aedc91" stroke="#aedc91" stroke-width="1.51"/><path d="M95,1143L92,1276L240,1146Z" fill="#81ac71" stroke="#81ac71" stroke-width="1.51"/><path d="M124,265L115,353L249,368Z" fill="#ceeba0" stroke="#ceeba0" stroke-width="1.51"/><path d="M10,-208L106,-155L257,-243Z" fill="#f7fcc4" stroke="#f7fcc4" stroke-width="1.51"/><path d="M186,-35L181,111L259,72Z" fill="#e6f6ac" stroke="#e6f6ac" stroke-width="1.51"/><path d="M186,1025L95,1143L240,1146Z" fill="#84b273" stroke="#84b273" stroke-width="1.51"/><path d="M-25,879L112,892L114,647Z" fill="#9cce85" stroke="#9cce85" stroke-width="1.51"/><path d="M-25,269L124,265L181,111Z" fill="#ddf2a8" stroke="#ddf2a8" stroke-width="1.51"/><path d="M112,892L35,952L186,1025Z" fill="#8fbe7a" stroke="#8fbe7a" stroke-width="1.51"/><path d="M35,952L95,1143L186,1025Z" fill="#8bb877" stroke="#8bb877" stroke-width="1.51"/><path d="M0,-36L181,111L186,-35Z" fill="#eef9b1" stroke="#eef9b1" stroke-width="1.51"/><path d="M106,-155L0,-36L186,-35Z" fill="#f5fcb7" stroke="#f5fcb7" stroke-width="1.51"/><path d="M0,-36L-71,57L181,111Z" fill="#eff9b4" stroke="#eff9b4" stroke-width="1.51"/><path d="M-71,57L-25,269L181,111Z" fill="#e7f5af" stroke="#e7f5af" stroke-width="1.51"/><path d="M22,340L34,580L105,539Z" fill="#bfe49c" stroke="#bfe49c" stroke-width="1.51"/><path d="M-71,691L-25,879L114,647Z" fill="#a3d58e" stroke="#a3d58e" stroke-width="1.51"/><path d="M105,539L34,580L114,647Z" fill="#b2de94" stroke="#b2de94" stroke-width="1.51"/><path d="M22,340L105,539L115,353Z" fill="#c8e89e" stroke="#c8e89e" stroke-width="1.51"/><path d="M22,340L115,353L124,265Z" fill="#d2eda3" stroke="#d2eda3" stroke-width="1.51"/><path d="M-25,269L22,340L124,265Z" fill="#d7efa7" stroke="#d7efa7" stroke-width="1.51"/><path d="M-63,1172L92,1276L95,1143Z" fill="#85ac74" stroke="#85ac74" stroke-width="1.51"/><path d="M35,952L-63,1172L95,1143Z" fill="#8bb57a" stroke="#8bb57a" stroke-width="1.51"/><path d="M34,580L-71,691L114,647Z" fill="#aedb94" stroke="#aedb94" stroke-width="1.51"/><path d="M10,-208L0,-36L106,-155Z" fill="#f9fcc1" stroke="#f9fcc1" stroke-width="1.51"/><path d="M-25,879L35,952L112,892Z" fill="#96c480" stroke="#96c480" stroke-width="1.51"/><path d="M-71,57L-120,185L-25,269Z" fill="#e6f5b5" stroke="#e6f5b5" stroke-width="1.51"/><path d="M22,340L-113,571L34,580Z" fill="#bfe4a0" stroke="#bfe4a0" stroke-width="1.51"/><path d="M-63,1172L-37,1320L92,1276Z" fill="#83a775" stroke="#83a775" stroke-width="1.51"/><path d="M-174,-176L0,-36L10,-208Z" fill="#fafdc8" stroke="#fafdc8" stroke-width="1.51"/><path d="M-187,350L-113,571L22,340Z" fill="#c9e9aa" stroke="#c9e9aa" stroke-width="1.51"/><path d="M-113,571L-71,691L34,580Z" fill="#b2dd9b" stroke="#b2dd9b" stroke-width="1.51"/><path d="M-25,879L-196,979L35,952Z" fill="#95c285" stroke="#95c285" stroke-width="1.51"/><path d="M-196,979L-63,1172L35,952Z" fill="#90ba82" stroke="#90ba82" stroke-width="1.51"/><path d="M-196,979L-210,1107L-63,1172Z" fill="#8eb786" stroke="#8eb786" stroke-width="1.51"/><path d="M-174,-176L-158,-15L0,-36Z" fill="#fafdc6" stroke="#fafdc6" stroke-width="1.51"/><path d="M-25,269L-187,350L22,340Z" fill="#d6eead" stroke="#d6eead" stroke-width="1.51"/><path d="M-71,691L-203,866L-25,879Z" fill="#9fce91" stroke="#9fce91" stroke-width="1.51"/><path d="M-158,-15L-71,57L0,-36Z" fill="#f3fabf" stroke="#f3fabf" stroke-width="1.51"/><path d="M-182,704L-203,866L-71,691Z" fill="#a4d498" stroke="#a4d498" stroke-width="1.51"/><path d="M-63,1172L-178,1253L-37,1320Z" fill="#84a87b" stroke="#84a87b" stroke-width="1.51"/><path d="M-120,185L-187,350L-25,269Z" fill="#dcf1b3" stroke="#dcf1b3" stroke-width="1.51"/><path d="M-203,866L-196,979L-25,879Z" fill="#99c58d" stroke="#99c58d" stroke-width="1.51"/><path d="M-154,37L-120,185L-71,57Z" fill="#edf8bd" stroke="#edf8bd" stroke-width="1.51"/><path d="M-158,-15L-154,37L-71,57Z" fill="#f2fac2" stroke="#f2fac2" stroke-width="1.51"/><path d="M-113,571L-182,704L-71,691Z" fill="#aedb9d" stroke="#aedb9d" stroke-width="1.51"/><path d="M-210,1107L-178,1253L-63,1172Z" fill="#89b083" stroke="#89b083" stroke-width="1.51"/><path d="M-187,350L-182,704L-113,571Z" fill="#bce2a8" stroke="#bce2a8" stroke-width="1.51"/><path d="M-154,37L-187,350L-120,185Z" fill="#e5f4ba" stroke="#e5f4ba" stroke-width="1.51"/><path d="M-158,-15L-187,350L-154,37Z" fill="#ecf7be" stroke="#ecf7be" stroke-width="1.51"/><path d="M-174,-176L-187,350L-158,-15Z" fill="#f1f9c3" stroke="#f1f9c3" stroke-width="1.51"/><path d="M-187,350L-203,866L-182,704Z" fill="#b1dca3" stroke="#b1dca3" stroke-width="1.51"/><path d="M-203,866L-210,1107L-196,979Z" fill="#94bf8d" stroke="#94bf8d" stroke-width="1.51"/></svg>